<?xml version="1.0" encoding="UTF-8"?>
<svg id="Layer_1" data-name="Layer 1" xmlns="http://www.w3.org/2000/svg" viewBox="0 0 100 100">
  <defs>
    <style>
      .cls-1 {
        fill: #fff;
      }
    </style>
  </defs>
  <path class="cls-1" d="M61.65,59.29c-7.96-5.78-19.54-4.99-25.91,2.49-2.41,2.82-3.38,6.38-3.47,10.12-.02.99-1.24,1.19-2.04.96-.69-.19-1.26-.92-1.2-1.89.2-2.98.81-5.87,2.24-8.49,2.18-4,5.79-6.86,9.97-8.55,10.56-4.27,23.71-.44,28.34,10.19,1,2.3,1.33,4.78,1.39,7.28.02.84-.74,1.45-1.4,1.58-.61.12-1.8-.18-1.81-1.02-.04-5.02-2.05-9.72-6.12-12.67Z"/>
  <path class="cls-1" d="M60.93,37.82c0,5.98-4.85,10.83-10.83,10.83s-10.83-4.85-10.83-10.83,4.85-10.83,10.83-10.83,10.83,4.85,10.83,10.83ZM57.61,37.82c0-4.13-3.35-7.48-7.48-7.48s-7.48,3.35-7.48,7.48,3.35,7.48,7.48,7.48,7.48-3.35,7.48-7.48Z"/>
</svg>