<?xml version="1.0" encoding="UTF-8"?>
<svg id="Layer_1" data-name="Layer 1" xmlns="http://www.w3.org/2000/svg" viewBox="0 0 100 100">
  <defs>
    <style>
      .cls-1 {
        fill: #fff;
      }
    </style>
  </defs>
  <path class="cls-1" d="M73.68,63.06c.02,5.64-4.42,9.59-10.46,9.59h-26.57c-5.06,0-10.18-3.37-10.21-8.8l-.12-27.31c-.02-5.43,4.51-9.21,9.83-9.2l28.71.04c4.78,0,8.72,4.19,8.74,8.94l.09,26.75ZM63.93,69.33c4.03,0,6.57-3.08,6.56-6.78l-.09-26.09c-.01-3.01-2.56-5.71-5.55-5.71l-29.2-.03c-3.63,0-6.06,2.77-6.06,6.25v25.86c0,3.22,2.31,6.47,5.78,6.47l28.56.03Z"/>
  <path class="cls-1" d="M47.84,58.02c-1.08.84-2.73,1.38-4.11,1.39l-7.85.04-.24-3.17v-13.58c-.01-.67.19-1.49.61-2.04h7.94c2.14-.01,3.82,1.51,4.41,3.09.78,2.09.35,4.19-1.21,5.71,1.09.67,1.74,1.34,2.12,2.33.87,2.27.41,4.61-1.68,6.24ZM43.56,48.34c1.53-.05,2.42-1.22,2.36-2.62-.06-1.3-1.06-2.15-2.54-2.16l-4.52-.04v4.96s4.7-.14,4.7-.14ZM43.81,56.51c1.85-.02,2.86-1.13,2.84-2.71-.01-1.25-.98-2.58-2.56-2.61l-5.26-.09.05,5.47,4.92-.06Z"/>
  <path class="cls-1" d="M61.68,55.23c.75-.85,2.8.42,2.45,1.36-.84,1.86-2.98,2.7-4.82,2.97-4.38.63-7.76-2.63-7.83-6.92-.07-3.64,2.21-6.66,5.88-7.28,2.18-.37,4.3.36,5.7,1.93s1.97,3.78,1.41,6.01l-6.15-.07-3.45.09c.04,1.82,1.13,2.95,2.46,3.32,1.66.47,3.1,0,4.34-1.41ZM61.62,50.76c-.5-2.35-2.05-2.91-3.63-2.78-1.45.11-2.93,1.11-3.09,2.9l6.73-.11Z"/>
  <path class="cls-1" d="M62.27,43.34c-2.51.4-4.85.31-7.37.18-.51-.03-.81-1.4-.64-1.87.2-.55.97-1.02,1.72-1l6.14.16c.8.02,1.02,2.4.14,2.54Z"/>
</svg>