<?xml version="1.0" encoding="UTF-8"?>
<svg id="Layer_1" data-name="Layer 1" xmlns="http://www.w3.org/2000/svg" viewBox="0 0 100 100">
  <defs>
    <style>
      .cls-1 {
        fill: #fff;
      }
    </style>
  </defs>
  <path class="cls-1" d="M29.38,73.34c-.74.19-1.83-.2-2.15-.6-.35-.44-.5-1.44-.31-2.07l2.6-8.9c-2.77-4.59-3.63-9.71-2.97-14.97,1.07-8.48,6.6-15.53,14.44-18.76,6.18-2.55,12.68-2.44,18.79.28,6.74,3,11.62,9.28,13.19,15.88,1.95,8.18-.24,16.05-5.57,21.89-7.21,7.9-19,10.13-28.52,4.83l-9.49,2.42ZM64.74,64.1c3.99-4.28,5.86-9.61,5.55-15.44-.27-5.1-2.39-9.54-5.92-13.21-2.13-2.21-4.77-3.71-7.7-4.83-7.09-2.69-14.82-.87-20.39,4.17-2.75,2.49-4.53,5.46-5.68,9-2.09,6.46-.76,11.79,2.4,17.63l-2.35,8.11,8.43-2.02c8.39,4.96,19.1,3.62,25.66-3.41Z"/>
  <circle class="cls-1" cx="60.6" cy="50.02" r="2.73"/>
  <path class="cls-1" d="M40.73,52.43c-1.2.46-2.45.29-3.26-.57-.71-.76-.95-2.1-.32-3.2.51-.9,1.75-1.48,2.98-1.19,1.16.27,1.94,1.2,2.09,2.21.17,1.13-.22,2.27-1.48,2.76Z"/>
  <circle class="cls-1" cx="50.06" cy="50.05" r="2.71"/>
</svg>