<?xml version="1.0" encoding="UTF-8"?>
<svg id="Layer_1" data-name="Layer 1" xmlns="http://www.w3.org/2000/svg" viewBox="0 0 100 100">
  <defs>
    <style>
      .cls-1 {
        fill: #fff;
      }
    </style>
  </defs>
  <path class="cls-1" d="M71.18,39.22l.17,25.59c.03,4.76-2.81,9.35-7.98,9.35h-27.15c-4.05,0-7.58-3.77-7.58-7.75l.02-27.18c0-4.03,3.3-7.3,7.08-7.5l3.6-.19.08-4.65c0-.46.96-1.02,1.42-1.06.53-.05,1.7.44,1.71,1.01l.1,4.77,14.45-.02.13-4.59c.01-.45.98-1.01,1.42-1.03s1.38.27,1.66.69l.06,4.87c2.04.09,3.97-.13,5.9.7,2.63,1.14,4.88,3.95,4.9,6.98ZM60.39,38.07c0,.52-1.06,1.14-1.56,1.21-.45.06-1.54-.41-1.56-.91l-.14-3.51-14.43.04-.1,3.42c-.01.47-1.05.97-1.52.98s-1.6-.34-1.63-.86l-.17-3.55-3.95.33c-1.91.48-3.36,2.18-3.39,4.1l-.1,4.89,36.18-.02-.13-4.96c-.06-2.37-2.12-4.19-4.46-4.26l-2.99-.09-.06,3.19ZM62.75,70.97c2.96.06,5.17-1.97,5.18-4.88l.1-18.61-36.1.07.05,19.19c0,2.11,1.84,3.66,3.77,4.16l27.01.07Z"/>
  <path class="cls-1" d="M54.16,60.49l-8.74.04c-.61,0-1.11-1.09-1.14-1.6s.47-1.65,1.09-1.65l8.4-.07c.93,0,1.72.43,1.88,1.22.18.93-.24,2.06-1.48,2.06Z"/>
</svg>