<?xml version="1.0" encoding="UTF-8"?>
<svg id="Layer_1" data-name="Layer 1" xmlns="http://www.w3.org/2000/svg" viewBox="0 0 100 100">
  <defs>
    <style>
      .cls-1 {
        fill: #fff;
      }
    </style>
  </defs>
  <path class="cls-1" d="M64.87,67.26l-3.94-3.94-10.96-11.04-2.9,2.96-2.83,2.92-8.98,9.01c-.66.67-2.01.57-2.42-.07-.61-.95-.46-1.74.33-2.54l11.29-11.38,3.15-3.27-14.54-14.58c-.67-.68-.72-1.61-.24-2.28.43-.6,1.63-1.03,2.31-.35l14.88,14.95,3.65-3.61,4.37-4.47,6.62-6.69c.67-.68,1.86-.48,2.44.13s.47,1.61-.25,2.34l-14.5,14.56,9.66,9.76,4.8,4.88c.72.69.99,1.62.45,2.4-.47.69-1.7,1.01-2.38.32Z"/>
</svg>