<?xml version="1.0" encoding="UTF-8"?>
<svg id="Layer_1" data-name="Layer 1" xmlns="http://www.w3.org/2000/svg" viewBox="0 0 100 100">
  <defs>
    <style>
      .cls-1 {
        fill: #fff;
      }
    </style>
  </defs>
  <path class="cls-1" d="M66.83,68.89l-33.17.04c-4.71,0-7.57-3.54-7.57-7.98v-18.83c0-2.12-.17-4.3.47-6.31.93-2.96,3.96-4.74,7.05-4.74h32.88c3.62,0,6.66,2.28,7.44,5.83l-.09,25.6c-.01,3.47-3.51,6.39-7.01,6.4ZM51.22,51.22l12.61-8.9,6.61-4.46c-.08-2.26-1.77-3.52-3.96-3.52h-32.53c-2.18.01-4.05,1.11-4.37,3.31l15.22,10.73,4.21,2.9c.68.47,1.4.51,2.21-.06ZM70.53,41.64l-9.42,6.56-7.79,5.52c-1.98,1.41-4.24,1.77-6.22.2l-17.6-12.34.05,20.55c0,1.95,1.74,3.41,3.53,3.59h33.42c2.2,0,4.07-1.34,4.06-3.69l-.02-20.39Z"/>
</svg>