<?xml version="1.0" encoding="UTF-8"?>
<svg id="Layer_1" data-name="Layer 1" xmlns="http://www.w3.org/2000/svg" viewBox="0 0 100 100">
  <defs>
    <style>
      .cls-1 {
        fill: #fff;
      }
    </style>
  </defs>
  <path class="cls-1" d="M72.31,54.82l.13,6.41c.1,5.16-3.28,9.82-8.71,9.83l-27.63.04c-4.32,0-8.56-4.09-8.54-8.18l.05-8.11c0-.44,1.13-.82,1.57-.86.49-.04,1.61.4,1.61,1.05l.08,7.46c.04,3.6,2.73,5.32,6.01,5.32h26.34c3.26,0,5.88-2,5.9-5.4l.05-7.24c0-.52.9-1.08,1.34-1.16.48-.09,1.78.2,1.8.83Z"/>
  <path class="cls-1" d="M55.97,54.07l-4.46,4.59c-.45.47-1.66.81-2.31.68l-9.68-9.69c-.49-.49-.07-1.71.36-2.03s1.66-.65,2.1-.19l6.23,6.42.05-23.19c0-.41.17-1.15.39-1.37.44-.42,1.84-.52,2.42-.14.26.17.43.79.54,1.25v13.32s.02,10.12.02,10.12l6.17-6.15c.71-.71,1.74-.57,2.33.03.72.73.51,1.62-.22,2.36l-3.96,3.99Z"/>
</svg>