<?xml version="1.0" encoding="UTF-8"?>
<svg id="Layer_1" data-name="Layer 1" xmlns="http://www.w3.org/2000/svg" viewBox="0 0 100 100">
  <defs>
    <style>
      .cls-1 {
        fill: #fff;
      }
    </style>
  </defs>
  <path class="cls-1" d="M73.89,50c0,13.19-10.7,23.89-23.89,23.89s-23.89-10.7-23.89-23.89,10.7-23.89,23.89-23.89,23.89,10.7,23.89,23.89ZM52.31,41.93l4.59-2.48c2.37-1.28,4.13-3.4,5.66-5.68-5.42-3.88-11.93-5.25-18.3-3.46,1.68,1.91,3.18,3.75,4.46,5.83l3.59,5.79ZM48.92,43.06l-1.99-3.58c-1.61-2.89-3.91-5.3-6.14-7.81-5.78,2.85-9.73,8.06-10.98,14.16l7.54-.77c3.92-.4,7.62-.83,11.57-2ZM55.47,49.14c5.18-1.32,9.93-1.29,15.18-.07-.41-4.83-2.16-9.19-5.36-12.86l-1.45,1.6c-2.85,3.14-6.28,5.26-10.11,7.11l1.74,4.23ZM52.32,50.07l-1.83-4.12c-4.26,1.42-8.67,1.78-13.17,2.36l-7.91,1.02c-.05,5.56,1.87,10.51,5.54,14.58,4.38-6.43,9.91-11.72,17.37-13.84ZM61.13,67.32c5.47-3.43,8.36-8.69,9.31-14.68-2.8-.67-5.53-1.46-8.28-1.07l-5.49.77c1.89,5.18,3.21,9.69,4.45,14.99ZM37.65,66.4c6.09,4.53,13.58,5.16,20.28,2.61-1.07-5.54-2.53-10.71-4.46-15.98-4.22,1.38-7.95,3.6-10.87,6.87-2.02,1.87-3.71,3.95-4.95,6.51Z"/>
</svg>