<?xml version="1.0" encoding="UTF-8"?>
<svg id="Layer_1" data-name="Layer 1" xmlns="http://www.w3.org/2000/svg" viewBox="0 0 100 100">
  <defs>
    <style>
      .cls-1 {
        fill: #fff;
      }
    </style>
  </defs>
  <path class="cls-1" d="M74.13,62.35c0,4.1-3.92,6.56-7.61,6.56h-33.13c-4.02,0-7.54-2.74-7.54-7.04v-23.94c-.01-3.97,3.36-6.85,7.29-6.85h33.91c3.71,0,7.1,2.8,7.1,6.57l-.02,24.7ZM66.6,41l4.3-2.95c-.16-2.19-1.87-3.77-4.08-3.76l-5.51.04h-27.61c-2.33,0-4.38,1.29-4.47,3.76l19.24,13.72c.85.6,2.15.57,2.98-.02l15.15-10.79ZM29.01,61.29c0,2.3,1.48,4.02,3.61,4.41h34.45c2.01.03,3.72-1.41,3.72-3.54l.07-20.14-17.17,12.26c-2.08,1.49-4.4,2.11-6.67.51l-17.93-12.66-.07,19.16Z"/>
</svg>