<?xml version="1.0" encoding="UTF-8"?>
<svg id="Layer_1" data-name="Layer 1" xmlns="http://www.w3.org/2000/svg" viewBox="0 0 100 100">
  <defs>
    <style>
      .cls-1 {
        fill: #fff;
      }
    </style>
  </defs>
  <path class="cls-1" d="M55.97,68.94c-1.12,1.99-3.45,2.1-4.98.81l-6.55-5.48c-.78-.65-1.34-1.75-1.34-2.8v-11.74s-5.37-5.89-5.37-5.89l-7.02-7.61c-1.17-1.27-.73-3.39.05-4.64.89-1.44,2.4-2.19,4.29-2.19l30.87.05c1.9,0,3.26,1.69,3.76,2.95.76,1.91.09,3.63-1.25,5.04l-6.01,6.27-5.59,5.97v15.68c0,1.15-.28,2.56-.85,3.59ZM53.43,67.44l-.02-18.28.59-1.34,7.5-7.92,4.75-4.9c.21-.22.36-1,.36-1.31s-.5-.95-.85-.95h-30.77c-.58,0-1.29.4-1.46.77-.15.32-.03,1.2.25,1.5l3.96,4.1,7.69,8.24c.46.49,1.01,1.43,1.01,2.09l.04,12.18,6.93,5.83Z"/>
</svg>