<?xml version="1.0" encoding="UTF-8"?>
<svg id="Layer_1" data-name="Layer 1" xmlns="http://www.w3.org/2000/svg" viewBox="0 0 100 100">
  <defs>
    <style>
      .cls-1 {
        fill: #fff;
      }
    </style>
  </defs>
  <path class="cls-1" d="M51.25,30.73c-.78-.67-1.92-.5-2.56.03l-5.03,4.14-9.82,8.46c-.91.78-1.6,1.94-1.6,3.23l-.04,25.35c0,.72-1.04,1.14-1.53,1.16s-1.7-.3-1.7-.99v-26.04c.01-1.86,1.17-3.84,2.56-5.03l15.16-12.96c2.07-1.77,5.06-1.35,6.99.33l14.39,12.48c1.47,1.27,2.9,3.11,2.9,5.18l.03,25.31c0,1.12-.79,1.63-1.87,1.66-.73.02-1.41-.46-1.41-1.34l-.03-24.32c0-1.53-.55-2.9-1.71-3.91l-14.75-12.73Z"/>
  <path class="cls-1" d="M52.13,63.93c-.03-.99-1.46-1.37-2.16-1.41-.74-.04-2.15.56-2.17,1.56l-.17,7.95c-.01.47-.92.94-1.33,1.01-.47.08-1.74-.2-1.78-.72-.22-2.9-.3-5.64-.03-8.44.26-2.72,2.68-4.29,5.17-4.45,3.27-.2,5.95,2.05,5.93,5.43l-.03,7.28c0,.44-.99.86-1.41.91-.48.06-1.78-.22-1.8-.73l-.22-8.4Z"/>
</svg>