<?xml version="1.0" encoding="UTF-8"?>
<svg id="Layer_1" data-name="Layer 1" xmlns="http://www.w3.org/2000/svg" viewBox="0 0 100 100">
  <defs>
    <style>
      .cls-1 {
        fill: #fff;
      }
    </style>
  </defs>
  <path class="cls-1" d="M72.21,58.76c0,7.2-5.3,12.94-11.97,12.95l-20.97.04c-6.71-.7-11.52-5.74-11.5-12.44l.04-19.66c.01-6.56,5.9-11.42,12.37-11.41l19.84.03c3.78,0,7.41,1.67,9.68,4.58,2.02,2.57,2.52,5.71,2.52,8.92l-.02,16.98ZM40.18,68.5l19.63.03c5.25,0,9.16-4.36,9.14-9.49l-.06-18.84c-.02-4.72-3.69-8.67-8.54-8.67l-20.86.03c-5.41,0-8.47,4.48-8.44,9.4l.1,18.29c0,1.5.24,3.13.98,4.45,1.62,2.88,4.69,4.79,8.06,4.79Z"/>
  <path class="cls-1" d="M60.6,50.05c0,5.85-4.75,10.6-10.6,10.6s-10.6-4.75-10.6-10.6,4.75-10.6,10.6-10.6,10.6,4.75,10.6,10.6ZM57.31,50.04c0-4.03-3.26-7.29-7.29-7.29s-7.29,3.26-7.29,7.29,3.26,7.29,7.29,7.29,7.29-3.26,7.29-7.29Z"/>
  <path class="cls-1" d="M60.89,40.78c-1.06-.15-1.57-1.15-1.58-2.02,0-.8.52-1.73,1.36-2.07.94-.37,1.94-.18,2.52.5.53.62.75,1.7.36,2.47-.42.84-1.38,1.3-2.66,1.12Z"/>
</svg>