<?xml version="1.0" encoding="UTF-8"?>
<svg id="Layer_1" data-name="Layer 1" xmlns="http://www.w3.org/2000/svg" viewBox="0 0 100 100">
  <defs>
    <style>
      .cls-1 {
        fill: #fff;
      }
    </style>
  </defs>
  <path class="cls-1" d="M73.75,63.45c0,4.95-4.52,9.21-9.35,9.2l-29.64-.11c-4.79-.02-8.52-4.8-8.51-9.42l.08-26.59c.02-5.66,4.61-9.16,10-9.16l27.45-.03c5.09,0,9.94,3.69,9.94,9.09l.02,27.01ZM70.53,62.77l-.02-14.5-.12-12.1c-.03-2.94-2.27-4.88-5.13-5.4h-29.69c-3.55.01-6.1,2.77-6.1,6.29v25.82c.01,3.8,2.85,6.57,6.61,6.57h27.92c3.77-.01,6.53-2.76,6.53-6.67Z"/>
  <path class="cls-1" d="M57.74,51.79c-.03-2-1.34-3.11-3.15-3.37-2.09-.3-4.49.94-4.55,3.35l-.22,8.67c-.61.94-2.25.92-3.27.19v-13.66c0-.33.12-.94.3-1.13.27-.28,1.8-.48,2.39-.17.3.16.53.79.78,1.38,2.24-1.87,5.6-2.33,8.11-.76,1.75,1.1,2.84,3,2.84,5.05v9.1c-.19,1.01-2.83,1.03-3.11.04l-.12-8.69Z"/>
  <path class="cls-1" d="M42.6,60.2c0,.65-1.04,1.02-1.49,1.05s-1.51-.24-1.65-.74l.08-14.27c.24-.96,2.81-1,3.02,0l.05,13.96Z"/>
  <path class="cls-1" d="M39.79,42.73c-1-.96-.86-2.79.32-3.42.99-.52,2.03-.21,2.57.66.44.71.4,1.81-.11,2.43-.67.81-2.01,1.07-2.78.33Z"/>
</svg>