<?xml version="1.0" encoding="UTF-8"?>
<svg id="Layer_1" data-name="Layer 1" xmlns="http://www.w3.org/2000/svg" viewBox="0 0 100 100">
  <defs>
    <style>
      .cls-1 {
        fill: #fff;
      }
    </style>
  </defs>
  <path class="cls-1" d="M52.1,73.26c-1.15,1.07-3.17,1.09-4.27-.02l-6.49-6.55c-3.84-3.88-6.69-8.32-8.91-13.29-3.53-7.9-1.86-17.11,4.71-22.72,8.52-7.27,21.14-6.02,28.19,2.68,3.64,4.49,4.89,10.45,3.5,16.21-.91,3.79-2.68,7.21-4.98,10.38-3.53,4.85-7.37,9.21-11.75,13.31ZM50,70.76l5.22-5.35,4.61-5.58c2.59-3.46,4.79-7.07,5.88-11.33,1.23-4.82-.18-9.71-3.39-13.56-3.4-4.08-8.84-6.05-14.1-5.55-4.2.4-7.59,2.3-10.39,5.35-3.8,4.14-4.95,9.94-3.11,15.34,1.18,3.46,2.96,6.54,5.08,9.51l4,4.89,6.19,6.28Z"/>
  <path class="cls-1" d="M57.93,44.8c0,4.43-3.59,8.02-8.02,8.02s-8.02-3.59-8.02-8.02,3.59-8.02,8.02-8.02,8.02,3.59,8.02,8.02ZM54.69,44.79c0-2.63-2.13-4.75-4.75-4.75s-4.75,2.13-4.75,4.75,2.13,4.75,4.75,4.75,4.75-2.13,4.75-4.75Z"/>
</svg>