<?xml version="1.0" encoding="UTF-8"?>
<svg id="Layer_1" data-name="Layer 1" xmlns="http://www.w3.org/2000/svg" viewBox="0 0 100 100">
  <defs>
    <style>
      .cls-1 {
        fill: #fff;
      }
    </style>
  </defs>
  <path class="cls-1" d="M68.19,60.63c1.11,0,1.85.33,2.09,1.23.18.68.01,2.11-1.05,2.11H30.71c-.92,0-1.17-1.52-.99-2.09.25-.83,1.16-1.24,2.24-1.24h36.23Z"/>
  <path class="cls-1" d="M69.7,38.97c-1.24.48-2.74.41-4.13.41l-34.66-.03c-.73,0-1.26-1.08-1.26-1.64s.43-1.68,1.21-1.68l38.35.05c1.11,0,1.52,2.48.48,2.88Z"/>
  <path class="cls-1" d="M69.37,51.6H30.76c-.9.01-1.09-1.47-.96-2.05.17-.76.86-1.24,1.89-1.24l37.52.02c.57,0,1.1,1.05,1.09,1.5-.01.6-.2,1.26-.92,1.77Z"/>
</svg>