<?xml version="1.0" encoding="UTF-8"?>
<svg id="Layer_1" data-name="Layer 1" xmlns="http://www.w3.org/2000/svg" viewBox="0 0 100 100">
  <defs>
    <style>
      .cls-1 {
        fill: #fff;
      }
    </style>
  </defs>
  <path class="cls-1" d="M67.96,56.11c3.36,1.54,4.2,4.94,3.22,8.54-1.07,3.93-4.1,6.67-8.36,7.1-4.94.5-9.85-1.21-14.18-3.64-2.06-1.15-3.88-2.3-5.65-3.8-7.49-6.38-12.87-14.14-14.38-23.97-.53-3.43.21-6.85,2.75-9.31,3.49-3.38,10.52-4.04,12.09-.61l3.29,7.18c.99,2.16.62,4.51-1.07,6.26l-2.13,2.21c.44,1.66,1.53,3,2.7,4.3,2.25,2.5,4.67,4.76,7.51,6.75,1.9-3.37,4.2-5.62,7.56-4.07l6.66,3.06ZM60.13,56.22c-1.02-.46-1.83.15-2.32.78l-2.78,3.57c-.36.47-1.4.55-1.95.17-4.92-3.34-9.09-7.52-12.23-12.57-.56-.9-.84-2.19-.5-3.15.81-2.31,5-2.48,3.17-6.59l-2.98-6.7c-1.52-.68-3.25-.16-4.7.41-6.26,2.46-4.02,10.43-1.35,16.08,4.54,9.63,13.75,18.07,24.29,20.14,3.1.61,6.19.15,8.26-2.45,1.27-1.59,1.79-4.79.42-6.41l-7.32-3.29Z"/>
</svg>