<?xml version="1.0" encoding="UTF-8"?>
<svg id="Layer_1" data-name="Layer 1" xmlns="http://www.w3.org/2000/svg" viewBox="0 0 100 100">
  <defs>
    <style>
      .cls-1 {
        fill: #fff;
      }
    </style>
  </defs>
  <path class="cls-1" d="M66.48,73.61l-14.23-.04-19.86-.03c-4.02,0-7.07-3.68-7.07-7.6l.02-25.88c0-3.89,3.62-6.69,7.27-6.73l7.04-.07c-.51-3.77,2.15-6.83,5.82-6.85l9.42-.03c3.2-.01,5.63,3.18,5.29,6.91h7.27c4,.01,7.21,3.66,7.21,7.83l.03,24.01c0,4.75-3.22,8.49-8.2,8.48ZM56.85,33.29c.14-1.7-.25-2.77-1.4-3.56l-10.66.05c-1.49,0-2.1,2.34-1.71,3.49h13.77ZM51.23,47.07c1.95.31,3.03,1.79,3.31,3.72l12.74-.12c2.09-.02,4-1.75,4-3.78v-6.28c.01-2.39-1.81-3.96-4.17-3.96l-34.95-.02c-1.89,0-3.6,2.1-3.58,3.72l.07,7.24c.02,1.5,1.99,3.06,3.59,3.07l13.09.07c.24-.9.5-1.88,1.01-2.42,1.29-1.37,3.15-1.51,4.89-1.24ZM51.23,54.99l.14-4.42c-.52-.62-2.2-.67-2.73,0-.21,1.48-.14,3.05.11,4.48.44.53,2.28.55,2.48-.07ZM67.14,53.99l-12.59.07c0,2.85-2.08,4.4-4.66,4.42s-4.67-1.54-4.47-4.42l-12.24-.02c-1.72,0-3.17-.53-4.71-1.52l.03,13.38c0,2.39,1.91,4.36,4.26,4.36l33.71.03c2.63,0,4.77-1.68,4.78-4.42l.03-13.38c-1.51.85-2.69,1.49-4.15,1.5Z"/>
</svg>