<?xml version="1.0" encoding="UTF-8"?>
<svg id="Layer_1" data-name="Layer 1" xmlns="http://www.w3.org/2000/svg" viewBox="0 0 100 100">
  <defs>
    <style>
      .cls-1 {
        fill: #fff;
      }
    </style>
  </defs>
  <path class="cls-1" d="M47.4,51.2l-6.75-3.28-9.49-4.86c-1.24-.63-2.14-1.93-2.41-3.01-1.03-4.13,2.51-5.05,5.73-6.66l12.01-6c1.85-.92,4.52-1.34,6.45-.37l16.32,8.19c1.49.75,2.22,2.59,2.18,4-.04,1.64-1.05,3.05-2.56,3.83l-7.22,3.74-8.35,4.2c-1.65.83-4.16,1.08-5.92.23ZM64.12,41.81l3.47-1.82c.23-.12.64-.76.53-.96l-.5-.88-13.82-7.01c-2.12-1.48-4.6-1.52-6.87-.38l-14.56,7.37c-.26.13-.62.87-.45,1.1l.66.88,14.42,7.42c2.17,1.19,4.31.95,6.4-.14l10.72-5.58Z"/>
  <path class="cls-1" d="M68.66,50.28c1.03-.53,2.21-.23,2.54.61s.08,1.79-.82,2.25l-16.27,8.28c-2.32,1.18-5.09,1.55-7.51.34l-16.48-8.27c-.69-.35-1.39-.8-1.46-1.36-.1-.78.16-1.6.77-1.93.57-.31,1.37-.22,2.02.12l10.69,5.52,6.16,2.99c1.23.6,2.96.31,4.2-.33l16.16-8.22Z"/>
  <path class="cls-1" d="M70.44,64.18l-16.02,8.23c-2.46,1.27-5.53,1.56-8,.31l-8.69-4.41-7.96-4.01c-.97-.49-1.35-1.67-.83-2.53.63-1.04,1.65-.87,2.68-.35l15.66,8.05c1.81.93,3.75,1.03,5.6.07l15.79-8.19c.9-.46,1.86-.36,2.36.42s.39,1.9-.59,2.4Z"/>
</svg>