<?xml version="1.0" encoding="UTF-8"?>
<svg id="Layer_1" data-name="Layer 1" xmlns="http://www.w3.org/2000/svg" viewBox="0 0 100 100">
  <defs>
    <style>
      .cls-1 {
        fill: #fff;
      }
    </style>
  </defs>
  <path class="cls-1" d="M70.49,68c.79.77,1.19,1.66.46,2.57-.54.67-1.73.88-2.49.13l-7.36-7.28-2.98-3.04c-7.79,6.22-18.94,5.53-25.28-2.19-4.28-5.22-5.45-12.3-2.64-18.76,2.41-5.55,7.87-9.78,14.47-10.51,5.46-.6,11.07,1.51,14.8,5.5,6.15,6.57,6.71,16.45.84,23.59l4.16,4.12,6.01,5.87ZM61.01,46.67c0-8.02-6.5-14.53-14.53-14.53s-14.53,6.5-14.53,14.53,6.5,14.53,14.53,14.53,14.53-6.5,14.53-14.53Z"/>
</svg>