<?xml version="1.0" encoding="UTF-8"?>
<svg id="Layer_1" data-name="Layer 1" xmlns="http://www.w3.org/2000/svg" viewBox="0 0 100 100">
  <defs>
    <style>
      .cls-1 {
        fill: #fff;
      }
    </style>
  </defs>
  <path class="cls-1" d="M43,69.96l-11.74,1.96c-.83.14-1.79.13-2.38-.39-.64-.58-.7-1.58-.53-2.51l2.23-11.6c.32-1.66,1.01-2.73,2.17-3.9l14.54-14.66,9.14-9.19c1.8-1.81,5.47-2.39,7.33-.54l6.17,6.15c1.84,1.84,2.47,4.84.96,7.09l-4.13,4.46-14.48,14.72-7.02,7.15c-.46.47-1.47,1.12-2.26,1.25ZM41.3,66.94c1.38-.22,2.43-.9,3.06-2.03l7.92-8.05,15.96-16.11c.32-.71.31-2.41-.26-2.97l-5.92-5.9c-.81-.81-2.71-.54-3.48.25l-10.27,10.37-8.29,8.39-4.71,4.73c-.78.86-1.37,1.93-1.59,3.09l-1.86,9.76,9.43-1.53Z"/>
</svg>