<?xml version="1.0" encoding="UTF-8"?>
<svg id="Layer_1" data-name="Layer 1" xmlns="http://www.w3.org/2000/svg" viewBox="0 0 100 100">
  <defs>
    <style>
      .cls-1 {
        fill: #fff;
      }
    </style>
  </defs>
  <path class="cls-1" d="M73.83,50c0,13.16-10.67,23.83-23.83,23.83s-23.83-10.67-23.83-23.83,10.67-23.83,23.83-23.83,23.83,10.67,23.83,23.83ZM70.51,50.04c0-11.32-9.18-20.5-20.5-20.5s-20.5,9.18-20.5,20.5,9.18,20.5,20.5,20.5,20.5-9.18,20.5-20.5Z"/>
  <path class="cls-1" d="M60.42,53.32l-9.47.08c-1.35.01-2.82-.62-2.82-2.21l.02-11.99c0-1.08.5-1.79,1.5-1.97.83-.15,1.86.36,1.86,1.45v11.53s8.53.04,8.53.04c.42,0,.97.89,1.01,1.28.05.46-.18,1.1-.63,1.78Z"/>
</svg>