<?xml version="1.0" encoding="UTF-8"?>
<svg id="Layer_1" data-name="Layer 1" xmlns="http://www.w3.org/2000/svg" viewBox="0 0 100 100">
  <defs>
    <style>
      .cls-1 {
        fill: #fff;
      }
    </style>
  </defs>
  <path class="cls-1" d="M69.45,54.62c.01-.62,1.02-1.07,1.48-1.05.49.02,1.6.49,1.6,1.01l-.04,8.48c-.02,4.21-4.31,7.66-9.26,7.66h-26.88c-4.76,0-8.87-3.53-8.87-8.34v-7.84c.01-.47,1.06-.93,1.49-.96s1.31.35,1.59.78l.1,8.04c.03,2.6,2.26,4.94,4.88,4.95l18.04.06h10.2c3.03,0,5.48-2.16,5.54-5.29l.15-7.49Z"/>
  <path class="cls-1" d="M48.34,58.17l-.02-23.1-6.47,6.19c-.53.51-1.85.06-2.19-.47-.36-.56-.14-1.58.51-2.24l3.75-3.83,2.71-2.78,2.07-2.13c.62-.63,1.9-.73,2.53-.09l3.38,3.43,5.68,5.83c.71.73.03,1.91-.58,2.25-.92.51-1.8.25-2.41-.57l-5.54-5.68-.05,22.91c0,.54-1.04,1.03-1.48,1.09-.54.07-1.24-.17-1.88-.8Z"/>
</svg>