<?xml version="1.0" encoding="UTF-8"?>
<svg id="Layer_1" data-name="Layer 1" xmlns="http://www.w3.org/2000/svg" viewBox="0 0 100 100">
  <defs>
    <style>
      .cls-1 {
        fill: #fff;
      }
    </style>
  </defs>
  <path class="cls-1" d="M70.2,69.97c-1.67,1.46-3.75,2.68-5.93,2.68h-28.13c-5.48.02-9.47-4.74-9.47-10.01v-25.1c0-5.58,3.83-10.14,9.68-10.15l26.88-.05c5.15,0,9.97,3.56,10,9.09l.12,26.18c.01,2.76-1.07,5.55-3.14,7.36ZM63.36,69.41c3.42,0,6.59-2.58,6.59-6l.03-26.88c-.34-2.82-2.41-5.7-5.51-5.7h-28.63c-3.37-.01-5.88,2.7-5.88,5.92v9.96s-.03,15.95-.03,15.95c0,3.4,2.47,6.7,6.13,6.71l27.3.05Z"/>
  <path class="cls-1" d="M38.14,44.36l5.25-3.66c.52-.36,1.88-.29,2.39-.03.66.33,1.07,1.25,1.24,2.09l2.09,10.15c.11.55.76,1.33,1.21,1.6,1.37-.63,2.31-1.76,3.07-3,1.28-2.1,3.01-5.08,1.72-6.32-.85-.81-2.35.37-3.07-.3-1.09-1.03,2.53-4.74,6.38-4.69,2.07.03,3.4,1.61,3.29,3.63-.27,4.66-5.27,11-8.87,14.43-1.35,1.29-2.99,2.33-4.96,2.13-1.6-.16-2.69-1.65-3.02-3.22l-1.65-7.99c-.23-1.12-.52-2.35-1.23-3.24-1.49-.29-2.94,1.76-4.02.53-.55-.63-.51-1.62.18-2.1Z"/>
</svg>