<?xml version="1.0" encoding="UTF-8"?>
<svg id="Layer_1" data-name="Layer 1" xmlns="http://www.w3.org/2000/svg" viewBox="0 0 100 100">
  <defs>
    <style>
      .cls-1 {
        fill: #fff;
      }
    </style>
  </defs>
  <path class="cls-1" d="M67.02,69.76c-11.94.94-23.36,1.08-35.13-.15-3.35-.35-6.38-3.13-6.95-6.58-1.4-8.47-1.32-17.06-.2-25.52.6-4.55,4.4-7.25,8.69-7.38l20.63-.63,13.78.84c4.19.25,7.29,3.76,7.53,7.84l.67,11.4c.24,4.14-.23,8.21-.76,12.27-.57,4.34-3.78,7.55-8.26,7.9ZM47.41,67.25c6.89.33,13.42-.26,20.05-.86,2.52-.23,4.24-2.27,4.54-4.65,1.01-7.97,1.06-15.84-.01-23.78-.3-2.22-1.99-4.1-4.12-4.27l-8.34-.66h-20.33s-6.51.44-6.51.44c-2.58.17-4.75,2.41-4.87,5.04l-.61,13.42.66,9.19c.22,3.11,2.44,5.32,5.57,5.47l13.96.67Z"/>
  <path class="cls-1" d="M49.51,56.23l-3.43,1.62c-.44.21-1.51-.09-1.87-.4-.42-.37-.67-1.17-.66-1.86l.13-12.52c.29-1.18,2.25-1.4,3.15-.92l10.39,5.56c.86.46,1.56,1.11,1.57,2s-.54,1.72-1.37,2.18l-7.9,4.34ZM54.53,49.82l-7.82-4.26.02,8.36,7.8-4.1Z"/>
</svg>