<?xml version="1.0" encoding="UTF-8"?>
<svg id="Layer_2" data-name="Layer 2" xmlns="http://www.w3.org/2000/svg" viewBox="0 0 770.17 254.95">
  <defs>
    <style>
      .cls-1 {
        fill: #fff;
      }
    </style>
  </defs>
  <g id="Layer_1-2" data-name="Layer 1">
    <g>
      <g>
        <path class="cls-1" d="M177.9,13.05l-74.44,139.4c-3.43,6.43-10.87,10.27-17.05,9.78-6.23-.49-11.83-5.28-15.2-11.75L.53,14.59C-2,9.71,5.11,1.94,9.05.98c5.18-1.26,13.62.37,16.83,6.49l62.39,119.13L150.37,9.23c2.94-5.56,8.53-9.03,14.01-8.55,5.94.52,10.92,3.88,13.52,12.37Z"/>
        <path class="cls-1" d="M238.43,34.42l-64.23,121.5c-3.29,6.23-13.07,6.71-17.17,4.42-7.15-4-8.19-11.38-4.39-18.58L223.36,7.82c3.25-6.15,11.16-8.11,17.29-7.51,6.6.64,11.5,5.18,15.07,11.96l70.63,134.13c3.55,6.74-5.31,14.07-9.93,14.83-7.02,1.16-12.36-2.29-15.87-8.95l-62.13-117.85Z"/>
        <g>
          <path class="cls-1" d="M565.86,24.99v120.66c0,7.28-2.02,13.17-9.3,15.36-6.08,1.83-13.29-1.5-16.05-8.8l.22-127.4-61.16.19v125.55c-1.96,5.77-6.82,10.13-11.82,11.02-6.51,1.15-12.77-1.06-17.59-6.25L327.85,23.94c-5.9-6.34-5.7-14.75.04-19.71,7-6.04,14.18-3.77,20.31,2.92l105.77,115.52.02-111.25c0-6.1,3.66-10.24,9.9-11.21l156.35-.16c6.35,0,10.08,6.01,10.98,10.8.9,4.83-2.58,13.7-9.09,13.74l-56.28.39Z"/>
          <path class="cls-1" d="M682.87,34.96l-63.51,118.88c-3.58,6.7-10.93,9.28-16.8,6.62-7.43-3.37-9.87-11.22-5.97-18.5l35.43-66.03,33.82-64.29c3.71-7.06,9.68-11.84,17.04-11.63,7.86.23,13.42,4.44,17.22,11.69l67.99,129.64c3.88,7.4,2.24,14.38-4.1,18.21-6.84,4.13-15.33,1.76-18.93-6.08l-62.19-118.51Z"/>
        </g>
      </g>
      <g>
        <path class="cls-1" d="M431.51,253.55l-23.7.34.09-53.39,22.78.22c14.67.14,24.53,12.61,24.81,25.86s-8.51,26.74-23.99,26.96ZM436.74,241.82c9.61-5.4,9.7-16.73,5.81-23.45-4.55-7.86-12.45-9.32-23.86-8.41l-.67,33.85c6.05.58,13.88.73,18.72-1.99Z"/>
        <path class="cls-1" d="M584.38,226.67c0,15.45-12.57,27.98-28.08,27.98s-28.08-12.53-28.08-27.98,12.57-27.98,28.08-27.98,28.08,12.53,28.08,27.98ZM573.94,226.95c0-9.84-8-17.81-17.87-17.81s-17.87,7.97-17.87,17.81,8,17.81,17.87,17.81,17.87-7.97,17.87-17.81Z"/>
        <path class="cls-1" d="M220.55,251.67c-10.4,5.78-24.97,3.92-32.31-5.53-1.17-1.5-2.41-5.57-2.45-7.28s4.46-3.29,6.16-3.03,4.29,2.69,5.41,4.63c3.86,6.64,14.54,5.84,19.07,2.04,1.24-1.04,2.83-5.8,1.73-6.84s-3.8-2.39-5.36-2.78l-16.52-4.12c-6.1-1.52-10.26-9.31-9.63-14.95.66-5.95,5.37-11.18,11.52-13.45,11.77-4.34,25.7,1.97,28.62,12.03.7,2.39-4.94,5.98-6.17,4.67l-5.42-5.8c-4.35-4.65-16.69-3.54-17.85,2.5-.42,2.18,3.12,6.18,5.54,6.67l14.07,2.81c6.02,1.2,11.28,7.27,11.8,12.39.66,6.49-2.23,12.72-8.21,16.05Z"/>
        <path class="cls-1" d="M364.2,201.02l9.72-.16c.07,12.74.38,24.19-.59,36.58-.86,10.92-12.68,17.03-21.61,17.1-9.92.08-20.84-5.33-22.31-16.84-1.59-12.48-1.01-24.45-.71-37.53l10.07.81.32,32.01c.07,7.02,6.78,11.54,12.5,11.54,7.38,0,12.04-5.62,12.16-13.67l.44-29.87Z"/>
        <polygon class="cls-1" points="283.42 253.51 273.1 253.57 273.17 210.24 256.93 209.91 257.79 199.95 299.57 200.14 299.35 210.05 282.96 210.36 283.42 253.51"/>
        <rect class="cls-1" x="487.05" y="200.29" width="10.52" height="53.4" transform="translate(-1.27 2.78) rotate(-.32)"/>
      </g>
    </g>
  </g>
</svg>