<?xml version="1.0" encoding="UTF-8"?>
<svg id="Layer_2" data-name="Layer 2" xmlns="http://www.w3.org/2000/svg" viewBox="0 0 837.12 414.66">
  <defs>
    <style>
      .cls-1 {
        fill: #fff;
      }
    </style>
  </defs>
  <g id="Layer_1-2" data-name="Layer 1">
    <g>
      <path class="cls-1" d="M420.59,1.22c-14.02-1.22-28.32,7.64-35.85,21.88l-158.87,300.32L66.23,18.59C58.02,2.92,36.42-1.24,23.17,1.98,13.07,4.44-5.12,24.34,1.37,36.81l180.83,347.67c8.61,16.56,22.94,28.82,38.89,30.08,15.83,1.25,34.85-8.58,43.63-25.02L455.18,32.87c-6.66-21.74-19.38-30.33-34.59-31.65Z"/>
      <path class="cls-1" d="M835.02,374.05L654.31,30.86c-9.14-17.35-21.67-28.95-38.57-30.6-15.67-1.53-35.92,3.49-44.23,19.22l-180.97,342.74c-9.73,18.42-7.06,37.3,11.23,47.53,10.49,5.87,35.5,4.64,43.93-11.3l164.34-310.88,158.97,301.53c8.99,17.05,22.65,25.88,40.6,22.91,11.82-1.95,34.48-20.71,25.4-37.96Z"/>
    </g>
  </g>
</svg>